HIERARCHY
ROOT Hips
{
  OFFSET 3.92544 6.39728 0
  CHANNELS 6 Xposition Yposition Zposition Zrotation Xrotation Yrotation
  JOINT BN_Spine_01
  {
    OFFSET 5.06197 -0.168311 0
    CHANNELS 6 Xposition Yposition Zposition Zrotation Xrotation Yrotation
    JOINT BN_Spine_02
    {
      OFFSET 14.8952 0 0
      CHANNELS 6 Xposition Yposition Zposition Zrotation Xrotation Yrotation
      JOINT BN_Spine_03
      {
        OFFSET 14.3786 0 0
        CHANNELS 6 Xposition Yposition Zposition Zrotation Xrotation Yrotation
        JOINT BN__Neck_01
        {
          OFFSET 15.3325 0 0
          CHANNELS 6 Xposition Yposition Zposition Zrotation Xrotation Yrotation
          JOINT BN__Neck_02
          {
            OFFSET 11.0839 0 0
            CHANNELS 6 Xposition Yposition Zposition Zrotation Xrotation Yrotation
            JOINT BN__Neck_R_01
            {
              OFFSET 3.85383 1.1973 3.491
              CHANNELS 6 Xposition Yposition Zposition Zrotation Xrotation Yrotation
              End Site
              {
                OFFSET 0 0 0
              }
            }
            JOINT BN__Neck_L_01
            {
              OFFSET 3.85383 1.1973 -3.49098
              CHANNELS 6 Xposition Yposition Zposition Zrotation Xrotation Yrotation
              End Site
              {
                OFFSET 0 0 0
              }
            }
            JOINT BN_Head_01
            {
              OFFSET 9.67523 0 0
              CHANNELS 6 Xposition Yposition Zposition Zrotation Xrotation Yrotation
              JOINT BN_Mouth_01
              {
                OFFSET 1.08197 -0.588672 0
                CHANNELS 6 Xposition Yposition Zposition Zrotation Xrotation Yrotation
                JOINT BN_Tongue_01
                {
                  OFFSET 2.17792 0.065941 0
                  CHANNELS 6 Xposition Yposition Zposition Zrotation Xrotation Yrotation
                  JOINT BN_Tongue_02
                  {
                    OFFSET 3.80658 -0.000201226 0
                    CHANNELS 6 Xposition Yposition Zposition Zrotation Xrotation Yrotation
                    End Site
                    {
                      OFFSET 0 0 0
                    }
                  }
                }
              }
            }
          }
        }
      }
    }
  }
  JOINT BN_Tail_01
  {
    OFFSET 4.67587 -0.164094 0
    CHANNELS 6 Xposition Yposition Zposition Zrotation Xrotation Yrotation
    JOINT BN_Tail_02
    {
      OFFSET 13.1147 2.52724e-005 0
      CHANNELS 6 Xposition Yposition Zposition Zrotation Xrotation Yrotation
      JOINT BN_Tail_03
      {
        OFFSET 13.4995 9.10759e-005 0
        CHANNELS 6 Xposition Yposition Zposition Zrotation Xrotation Yrotation
        JOINT BN_Tail_04
        {
          OFFSET 13.2851 0 0
          CHANNELS 6 Xposition Yposition Zposition Zrotation Xrotation Yrotation
          JOINT BN_Tail_05
          {
            OFFSET 14.6528 0.000106812 0
            CHANNELS 6 Xposition Yposition Zposition Zrotation Xrotation Yrotation
            JOINT BN_Tail_06
            {
              OFFSET 13.1048 0 0
              CHANNELS 6 Xposition Yposition Zposition Zrotation Xrotation Yrotation
              JOINT BN_Tail_07
              {
                OFFSET 11.869 0.000113964 0
                CHANNELS 6 Xposition Yposition Zposition Zrotation Xrotation Yrotation
                End Site
                {
                  OFFSET 0 0 0
                }
              }
            }
          }
        }
      }
    }
  }
}
MOTION
Frames:	10
Frame Time:	0.0333333
3.92544 3.97237 0 5.37303 -0.0014928 6.81405e-005 5.06197 -0.168311 7.27596e-012 8.05712 -2.57312 38.1669 14.8952 -2.38419e-007 -1.90735e-006 60.4342 -31.2512 -29.9225 14.3786 0 9.53674e-007 39.7966 1.73661 -19.1999 15.3325 3.55272e-015 -3.55271e-015 -23.5911 -12.3223 27.3102 11.0839 -1.90735e-006 -5.96047e-008 -67.743 0.0838766 2.30986 4.53921 1.45961 3.83302 -87.314 -13.605 -72.5979 4.48717 1.45926 -3.07319 93.2246 -18.421 99.6847 9.67523 -3.81471e-006 0 -40.1931 0.767002 0.753579 1.08197 -0.588671 2.98023e-008 -0.867302 -1.10701e-008 1.29804e-008 3.18259 0.278405 2.5332e-006 2.34676 -1.73613e-008 -3.69392e-008 5.10923 0.673201 0 19.773 2.24684e-008 1.55402e-008 4.67587 -0.164094 7.27596e-012 179.125 0.690858 -11.246 13.1147 -4.44089e-016 1.19209e-007 -5.53061 -0.888465 18.9548 13.4995 2.38419e-007 0 -2.80222 5.77867 29.3357 13.2851 -2.38419e-007 -9.53674e-007 -1.61902 -1.74751 48.3943 14.6528 -2.22045e-016 3.8147e-006 -1.68247 -1.96962 45.7249 13.1048 -1.19209e-007 0 1.12464 0.863626 26.0834 11.869 2.22045e-016 3.8147e-006 -1.34861 5.924 -23.3681 
3.88921 3.97237 -8.62379e-015 5.37303 -0.0014928 6.81405e-005 5.06197 -0.168311 7.27596e-012 8.91065 -2.56106 38.1543 14.8952 -2.38419e-007 -1.90735e-006 60.4835 -31.2354 -29.8449 14.3786 1.42109e-014 9.53674e-007 39.5016 1.68358 -19.1927 15.3325 1.06582e-014 -7.10543e-015 -23.8047 -12.2527 27.2572 11.0839 -1.90735e-006 -5.96047e-008 -68.0965 -0.0608278 2.21543 4.54278 1.45531 3.84689 -87.314 -13.605 -72.5979 4.49197 1.457 -3.0872 93.2246 -18.421 99.6847 9.67523 -3.81471e-006 -4.44089e-016 -40.0934 0.772995 0.728071 1.08197 -0.588671 2.97905e-008 -0.86848 -1.12202e-008 1.29992e-008 3.28667 0.281571 2.53327e-006 1.31509 -0.00525747 -0.229014 5.11524 0.665531 -9.95576e-005 8.00965 0.210866 2.0767 4.67587 -0.164094 7.27596e-012 179.056 0.703927 -11.3507 13.1147 -2.22045e-015 1.19209e-007 -5.52744 -0.897709 18.9542 13.4995 2.38419e-007 -1.77636e-015 -2.84004 5.75797 29.4044 13.2851 -2.38419e-007 -9.53674e-007 -1.72957 -1.81015 48.4559 14.6528 -1.19904e-014 3.8147e-006 -1.68532 -1.97994 45.4285 13.1048 -1.19209e-007 7.10543e-015 1.08778 0.849174 27.4961 11.869 -1.33227e-015 3.8147e-006 -1.44336 6.43501 -20.7938 
3.78979 3.97237 -2.12287e-014 5.37303 -0.0014928 6.81405e-005 5.06197 -0.168311 7.27596e-012 9.79077 -2.51822 38.1213 14.8952 -2.38419e-007 -1.90735e-006 60.6255 -31.1898 -29.6212 14.3786 1.42109e-014 9.53674e-007 39.2057 1.53506 -19.1694 15.3325 1.06582e-014 -3.55271e-015 -24.4105 -12.0503 27.0999 11.0839 -1.90735e-006 -5.96046e-008 -68.4257 -0.205027 1.94983 4.55269 1.4433 3.88554 -87.314 -13.605 -72.5979 4.50531 1.45073 -3.12615 93.2246 -18.421 99.6847 9.67523 -3.81471e-006 -2.66454e-015 -39.824 0.798296 0.661129 1.08197 -0.588671 2.99072e-008 -0.869636 -1.12896e-008 1.28282e-008 3.52874 0.289604 2.53337e-006 0.272461 -0.00370837 -0.77977 5.13113 0.645124 -0.000406399 -17.1176 0.660185 6.50395 4.67587 -0.164094 7.27596e-012 179.001 0.738527 -11.637 13.1147 1.11022e-014 1.19209e-007 -5.5245 -0.905581 18.9398 13.4995 2.38419e-007 -8.88178e-016 -2.88728 5.73265 29.6 13.2851 -2.38419e-007 -9.53674e-007 -1.8219 -1.86325 48.6256 14.6528 -2.79776e-014 3.8147e-006 -1.69299 -2.01048 44.6256 13.1048 -1.19209e-007 -1.42109e-014 1.02299 0.823367 28.8963 11.869 1.9984e-015 3.8147e-006 -1.58719 6.89516 -18.021 
3.63219 3.97237 -2.20401e-014 5.37303 -0.0014928 6.81405e-005 5.06197 -0.168311 7.27596e-012 10.7194 -2.45275 38.0673 14.8952 -2.38419e-007 -1.90735e-006 60.8585 -31.1152 -29.2535 14.3786 1.42109e-014 9.53674e-007 38.9017 1.2918 -19.136 15.3325 -1.77636e-014 -1.77636e-015 -25.385 -11.7211 26.8502 11.0839 -1.90735e-006 -5.96047e-008 -68.742 -0.356615 1.51873 4.5687 1.42394 3.94785 -87.314 -13.605 -72.5979 4.52684 1.44062 -3.18898 93.2246 -18.421 99.6847 9.67523 -3.81471e-006 -8.88179e-016 -39.3848 0.839705 0.549411 1.08197 -0.588671 3.01125e-008 -0.870801 -1.13208e-008 1.25256e-008 3.82512 0.301354 2.53345e-006 -0.549639 0.014197 -1.47956 5.15512 0.614235 -0.000972818 -42.5719 1.10122 10.9796 4.67587 -0.164094 7.27596e-012 178.962 0.790261 -12.0884 13.1147 8.88178e-016 1.19209e-007 -5.52097 -0.915363 18.9287 13.4995 2.38419e-007 -8.88178e-016 -2.94404 5.70218 29.9066 13.2851 -2.38419e-007 -9.53674e-007 -1.89729 -1.90359 48.8858 14.6528 -3.15303e-014 3.8147e-006 -1.70456 -2.05558 43.3762 13.1048 -1.19209e-007 0 0.934764 0.789452 30.3114 11.869 -2.22045e-016 3.8147e-006 -1.78092 7.31947 -15.0108 
3.42297 3.97237 -9.91039e-014 5.37303 -0.0014928 6.81405e-005 5.06197 -0.168311 7.27596e-012 11.6934 -2.36238 37.9908 14.8952 -2.38419e-007 -1.90735e-006 61.1697 -31.0041 -28.7529 14.3786 3.55272e-015 9.53674e-007 38.5911 0.959988 -19.0886 15.3325 0 0 -26.7088 -11.2712 26.5056 11.0839 -1.90735e-006 -5.96047e-008 -69.0469 -0.508904 0.934382 4.59037 1.39772 4.03225 -87.3139 -13.605 -72.5979 4.55599 1.42691 -3.27409 93.2247 -18.421 99.6848 9.67523 -3.81471e-006 2.22045e-015 -38.7828 0.890989 0.396977 1.08197 -0.588671 3.04149e-008 -0.874335 -1.13222e-008 1.20788e-008 4.08482 0.315558 2.53345e-006 -0.86861 0.0325225 -2.14409 5.18508 0.575783 -0.00184678 -53.9734 1.27799 12.9204 4.67587 -0.164094 7.27596e-012 178.937 0.854458 -12.684 13.1147 1.77636e-015 1.19209e-007 -5.51816 -0.923074 18.9178 13.4995 2.38419e-007 -1.33227e-015 -3.00927 5.66668 30.3051 13.2851 -2.38419e-007 -9.53674e-007 -1.95726 -1.93535 49.2234 14.6528 -3.5083e-014 3.8147e-006 -1.72115 -2.11348 41.7462 13.1048 -1.19209e-007 0 0.828695 0.751497 31.7229 11.869 1.11022e-015 3.8147e-006 -2.02028 7.69692 -11.7937 
3.17737 3.97237 -1.46126e-013 5.37303 -0.0014928 6.81405e-005 5.06197 -0.168311 7.27596e-012 12.6737 -2.25472 37.8907 14.8952 -2.38419e-007 -1.90735e-006 61.5513 -30.8626 -28.1412 14.3786 7.10543e-015 9.53674e-007 38.2813 0.558478 -19.0322 15.3325 3.55272e-015 8.88178e-015 -28.3012 -10.7261 26.0876 11.0839 -1.90735e-006 -5.96047e-008 -69.3296 -0.656788 0.230379 4.61638 1.36626 4.13349 -87.3139 -13.605 -72.5979 4.59097 1.41049 -3.3762 93.2247 -18.421 99.6848 9.67523 -3.81471e-006 -6.66134e-016 -38.0591 0.956609 0.218963 1.08197 -0.588671 3.07901e-008 -0.877795 -1.12756e-008 1.15197e-008 4.31822 0.336046 2.53338e-006 0.458544 -0.0228608 -2.85404 5.2182 0.533059 -0.00340614 -35.1507 -0.908577 3.45842 4.67587 -0.164094 7.27596e-012 178.924 0.923966 -13.3782 13.1147 -1.33227e-015 1.19209e-007 -5.5154 -0.931492 18.9244 13.4995 2.38419e-007 -8.88178e-016 -3.07602 5.62971 30.7604 13.2851 -2.38419e-007 -9.53674e-007 -2.00239 -1.96215 49.6155 14.6528 -3.61933e-014 3.8147e-006 -1.73991 -2.17885 39.8714 13.1048 -1.19209e-007 0 0.712817 0.707812 33.076 11.869 -2.22045e-016 3.8147e-006 -2.29596 8.00949 -8.51893 
2.8961 3.97237 -5.01971e-014 5.37303 -0.0014928 6.81405e-005 5.06197 -0.168311 7.27596e-012 13.6899 -2.12595 37.7747 14.8952 -2.38419e-007 -1.90735e-006 62.0043 -30.6883 -27.4059 14.3786 1.42109e-014 9.53674e-007 37.9652 0.0872896 -18.9625 15.3325 7.10543e-015 -1.77636e-015 -30.1729 -10.0776 25.5939 11.0839 -1.90735e-006 -5.96047e-008 -69.6092 -0.813922 -0.599866 4.64691 1.32932 4.2524 -87.3139 -13.605 -72.5979 4.63203 1.3912 -3.49608 93.2246 -18.421 99.6847 9.67523 -3.81471e-006 -4.44089e-016 -37.204 1.03182 0.00410845 1.08197 -0.588671 3.12164e-008 -0.881294 -1.1237e-008 1.08798e-008 4.56685 0.362497 2.53325e-006 3.40297 -0.219301 -3.68292 5.25165 0.489911 -0.00498094 4.06827 -5.57287 -17.6366 4.67587 -0.164094 7.27596e-012 178.926 0.995511 -14.1667 13.1147 -4.44089e-015 1.19209e-007 -5.51371 -0.937436 18.9454 13.4995 2.38419e-007 -8.88178e-016 -3.14631 5.58989 31.2716 13.2851 -2.38419e-007 -9.53674e-007 -2.0343 -1.97646 50.0472 14.6528 -3.5083e-014 3.8147e-006 -1.76322 -2.24831 37.7746 13.1048 -1.19209e-007 0 0.588509 0.665337 34.3886 11.869 1.9984e-015 3.8147e-006 -2.60632 8.26805 -5.11988 
2.58638 3.97237 -2.66721e-013 5.37303 -0.0014928 6.81405e-005 5.06197 -0.168311 7.27596e-012 14.7295 -1.98153 37.6343 14.8952 -2.38419e-007 -1.90735e-006 62.5188 -30.4732 -26.5634 14.3786 0 9.53674e-007 37.644 -0.453459 -18.8846 15.3325 -1.06582e-014 -3.55271e-015 -32.2956 -9.32654 25.0296 11.0839 -1.90735e-006 -5.96047e-008 -69.8747 -0.97119 -1.55358 4.68152 1.28745 4.38714 -87.314 -13.605 -72.5979 4.67858 1.36934 -3.63197 93.2246 -18.421 99.6847 9.67523 -3.81471e-006 8.88179e-016 -36.2261 1.11993 -0.239968 1.08197 -0.588671 3.16842e-008 -0.885705 -1.11251e-008 1.01705e-008 4.76436 0.385534 2.53303e-006 6.35753 -0.488239 -4.37348 5.28538 0.446393 -0.00657974 40.26 -8.41871 -39.1563 4.67587 -0.164094 7.27596e-012 178.94 1.06408 -15.0263 13.1147 8.88178e-016 1.19209e-007 -5.5137 -0.939928 18.9958 13.4995 2.38419e-007 -2.22045e-015 -3.21897 5.54765 31.8178 13.2851 -2.38419e-007 -9.53674e-007 -2.05777 -1.98393 50.5114 14.6528 -5.32907e-015 3.8147e-006 -1.79456 -2.3209 35.5399 13.1048 -1.19209e-007 0 0.457759 0.61728 35.6439 11.869 2.88658e-015 3.8147e-006 -2.94459 8.46654 -1.64645 
2.26573 3.97237 -1.34148e-013 5.37303 -0.0014928 6.81405e-005 5.06197 -0.168311 7.27596e-012 15.7608 -1.82295 37.4771 14.8952 -2.38419e-007 -1.90735e-006 63.0689 -30.2224 -25.6403 14.3786 1.77636e-014 9.53674e-007 37.3253 -1.03718 -18.7973 15.3325 0 3.55271e-015 -34.5679 -8.51274 24.4234 11.0839 -1.90735e-006 -5.96047e-008 -70.1291 -1.12298 -2.58284 4.71853 1.24268 4.53123 -87.314 -13.605 -72.5979 4.72836 1.34595 -3.77728 93.2246 -18.4209 99.6847 9.67523 -3.81471e-006 -2.22045e-015 -35.1722 1.21357 -0.506862 1.08197 -0.588671 3.21484e-008 -0.890036 -1.09735e-008 9.45999e-009 4.84356 0.395195 2.53275e-006 7.66789 -0.628708 -4.65932 5.31468 0.409358 -0.0090043 55.7644 -8.65503 -48.8547 4.67587 -0.164094 7.27596e-012 178.966 1.12286 -15.9059 13.1147 0 1.19209e-007 -5.51439 -0.941674 19.073 13.4995 2.38419e-007 -1.77636e-015 -3.28464 5.50861 32.3646 13.2851 -2.38419e-007 -9.53674e-007 -2.07132 -1.98719 50.9752 14.6528 6.21725e-015 3.8147e-006 -1.82633 -2.38997 33.3046 13.1048 -1.19209e-007 0 0.332153 0.574862 36.7958 11.869 4.44089e-015 3.8147e-006 -3.29268 8.60031 1.75634 
1.93192 3.97237 -1.75941e-013 5.37303 -0.0014928 6.81405e-005 5.06197 -0.168311 7.27596e-012 16.8127 -1.6505 37.2985 14.8952 -2.38419e-007 -1.90735e-006 63.6684 -29.9301 -24.6233 14.3786 1.77636e-014 9.53674e-007 37.0054 -1.67218 -18.7019 15.3325 -7.10543e-015 -1.77636e-015 -37.0224 -7.62178 23.7601 11.0839 -1.90735e-006 -5.96047e-008 -70.3771 -1.27296 -3.70081 4.75909 1.19415 4.68678 -87.314 -13.605 -72.5979 4.7827 1.32049 -3.93406 93.2246 -18.421 99.6847 9.67523 -3.81471e-006 3.83027e-015 -34.0227 1.31883 -0.796133 1.08197 -0.588671 3.2619e-008 -0.894408 -1.07336e-008 8.73272e-009 4.7907 0.394804 2.5324e-006 5.93132 -0.393146 -3.77863 5.33875 0.377506 -0.0118034 31.4782 -6.1963 -32.6003 4.67587 -0.164094 7.27596e-012 179.002 1.16891 -16.8067 13.1147 -1.33227e-015 1.19209e-007 -5.51599 -0.942944 19.1937 13.4995 2.38419e-007 0 -3.34718 5.47054 32.9065 13.2851 -2.38419e-007 -9.53674e-007 -2.07574 -1.98588 51.433 14.6528 6.39488e-014 3.8147e-006 -1.86283 -2.45329 31.0892 13.1048 -1.19209e-007 0 0.206682 0.529314 37.8557 11.869 3.55272e-015 3.8147e-006 -3.65295 8.67409 5.15258 
